HIERARCHY
ROOT hip
{
  OFFSET 0 0 0
  CHANNELS 6 Xposition Yposition Zposition Zrotation Yrotation Xrotation
  JOINT abdomen
  {
    OFFSET 0 20.6881 -0.73152
    CHANNELS 3 Zrotation Xrotation Yrotation
    JOINT chest
    {
      OFFSET 0 11.7043 -0.48768
      CHANNELS 3 Zrotation Xrotation Yrotation
      JOINT neck
      {
        OFFSET 0 22.1894 -2.19456
        CHANNELS 3 Zrotation Xrotation Yrotation
        JOINT head
        {
          OFFSET -0.24384 7.07133 1.2192
          CHANNELS 3 Zrotation Xrotation Yrotation
          JOINT leftEye
          {
            OFFSET 4.14528 8.04674 8.04672
            CHANNELS 3 Zrotation Xrotation Yrotation
            End Site
            {
              OFFSET 1 0 0
            }
          }
          JOINT rightEye
          {
            OFFSET -3.6576 8.04674 8.04672
            CHANNELS 3 Zrotation Xrotation Yrotation
            End Site
            {
              OFFSET 1 0 0
            }
          }
        }
      }
      JOINT rCollar
      {
        OFFSET -2.68224 19.2634 -4.8768
        CHANNELS 3 Zrotation Xrotation Yrotation
        JOINT rShldr
        {
          OFFSET -8.77824 -1.95073 1.46304
          CHANNELS 3 Zrotation Xrotation Yrotation
          JOINT rForeArm
          {
            OFFSET -28.1742 -1.7115 0.48768
            CHANNELS 3 Zrotation Xrotation Yrotation
            JOINT rHand
            {
              OFFSET -22.5879 0.773209 7.07136
              CHANNELS 3 Zrotation Xrotation Yrotation
              JOINT rThumb1
              {
                OFFSET -1.2192 -0.487915 3.41376
                CHANNELS 3 Zrotation Xrotation Yrotation
                JOINT rThumb2
                {
                  OFFSET -3.37035 -0.52449 3.41376
                  CHANNELS 3 Zrotation Xrotation Yrotation
                  End Site
                  {
                    OFFSET -1.78271 -1.18214 1.43049
                  }
                }
              }
              JOINT rIndex1
              {
                OFFSET -7.75947 0.938293 5.60832
                CHANNELS 3 Zrotation Xrotation Yrotation
                JOINT rIndex2
                {
                  OFFSET -2.54057 -0.884171 1.56538
                  CHANNELS 3 Zrotation Xrotation Yrotation
                  End Site
                  {
                    OFFSET -1.62519 -0.234802 1.16502
                  }
                }
              }
              JOINT rMid1
              {
                OFFSET -8.24714 1.18213 3.41376
                CHANNELS 3 Zrotation Xrotation Yrotation
                JOINT rMid2
                {
                  OFFSET -3.10165 -0.590103 1.0647
                  CHANNELS 3 Zrotation Xrotation Yrotation
                  End Site
                  {
                    OFFSET -2.48547 -0.328903 0.83742
                  }
                }
              }
              JOINT rRing1
              {
                OFFSET -8.82822 0.546677 1.51678
                CHANNELS 3 Zrotation Xrotation Yrotation
                JOINT rRing2
                {
                  OFFSET -2.60934 -0.819778 -0.0198488
                  CHANNELS 3 Zrotation Xrotation Yrotation
                  End Site
                  {
                    OFFSET -2.33842 -0.294052 0.168128
                  }
                }
              }
              JOINT rPinky1
              {
                OFFSET -8.27202 -0.0477905 -0.4584
                CHANNELS 3 Zrotation Xrotation Yrotation
                JOINT rPinky2
                {
                  OFFSET -1.82734 -0.647385 -0.700984
                  CHANNELS 3 Zrotation Xrotation Yrotation
                  End Site
                  {
                    OFFSET -1.69225 -0.51767 -0.607171
                  }
                }
              }
            }
          }
        }
      }
      JOINT lCollar
      {
        OFFSET 2.68224 19.2634 -4.8768
        CHANNELS 3 Zrotation Xrotation Yrotation
        JOINT lShldr
        {
          OFFSET 8.77824 -1.95073 1.46304
          CHANNELS 3 Zrotation Xrotation Yrotation
          JOINT lForeArm
          {
            OFFSET 28.1742 -1.7115 0.48768
            CHANNELS 3 Zrotation Xrotation Yrotation
            JOINT lHand
            {
              OFFSET 22.5879 0.773209 7.07136
              CHANNELS 3 Zrotation Xrotation Yrotation
              JOINT lThumb1
              {
                OFFSET 1.2192 -0.487915 3.41376
                CHANNELS 3 Zrotation Xrotation Yrotation
                JOINT lThumb2
                {
                  OFFSET 3.37035 -0.52449 3.41376
                  CHANNELS 3 Zrotation Xrotation Yrotation
                  End Site
                  {
                    OFFSET 1.78271 -1.18214 1.43049
                  }
                }
              }
              JOINT lIndex1
              {
                OFFSET 7.75947 0.938293 5.60832
                CHANNELS 3 Zrotation Xrotation Yrotation
                JOINT lIndex2
                {
                  OFFSET 2.54057 -0.884171 1.56538
                  CHANNELS 3 Zrotation Xrotation Yrotation
                  End Site
                  {
                    OFFSET 1.62519 -0.234802 1.16502
                  }
                }
              }
              JOINT lMid1
              {
                OFFSET 8.24714 1.18213 3.41376
                CHANNELS 3 Zrotation Xrotation Yrotation
                JOINT lMid2
                {
                  OFFSET 3.10165 -0.590103 1.0647
                  CHANNELS 3 Zrotation Xrotation Yrotation
                  End Site
                  {
                    OFFSET 2.48547 -0.328903 0.83742
                  }
                }
              }
              JOINT lRing1
              {
                OFFSET 8.82822 0.546677 1.51678
                CHANNELS 3 Zrotation Xrotation Yrotation
                JOINT lRing2
                {
                  OFFSET 2.60934 -0.819778 -0.0198488
                  CHANNELS 3 Zrotation Xrotation Yrotation
                  End Site
                  {
                    OFFSET 2.33842 -0.294052 0.168128
                  }
                }
              }
              JOINT lPinky1
              {
                OFFSET 8.27202 -0.0477905 -0.4584
                CHANNELS 3 Zrotation Xrotation Yrotation
                JOINT lPinky2
                {
                  OFFSET 1.82734 -0.647385 -0.700984
                  CHANNELS 3 Zrotation Xrotation Yrotation
                  End Site
                  {
                    OFFSET 1.69225 -0.51767 -0.607171
                  }
                }
              }
            }
          }
        }
      }
    }
  }
  JOINT rButtock
  {
    OFFSET -8.77824 4.35084 1.2192
    CHANNELS 3 Zrotation Xrotation Yrotation
    JOINT rThigh
    {
      OFFSET 0 -1.70687 -2.19456
      CHANNELS 3 Zrotation Xrotation Yrotation
      JOINT rShin
      {
        OFFSET 0 -36.8199 0.73152
        CHANNELS 3 Zrotation Xrotation Yrotation
        JOINT rFoot
        {
          OFFSET 0.73152 -45.1104 -5.12064
          CHANNELS 3 Zrotation Xrotation Yrotation
          End Site
          {
            OFFSET -1.1221 -3.69964 12.103
          }
        }
      }
    }
  }
  JOINT lButtock
  {
    OFFSET 8.77824 4.35084 1.2192
    CHANNELS 3 Zrotation Xrotation Yrotation
    JOINT lThigh
    {
      OFFSET 0 -1.70687 -2.19456
      CHANNELS 3 Zrotation Xrotation Yrotation
      JOINT lShin
      {
        OFFSET 0 -36.8199 0.73152
        CHANNELS 3 Zrotation Xrotation Yrotation
        JOINT lFoot
        {
          OFFSET -0.73152 -45.1104 -5.12064
          CHANNELS 3 Zrotation Xrotation Yrotation
          End Site
          {
            OFFSET 1.1221 -3.69964 12.103
          }
        }
      }
    }
  }
}
MOTION
Frames:	6
Frame Time:	0.00833333
-9.17371 80.4662 -137.692 -3.0511 6.9302 11.0043 7.22679 7.20899 3.04664 0.905367 -6.9231 0.974872 7.05868 -4.14348 -0.710257 -17.6982 -4.31691 -4.57468 -0.0 0.0 0.0 -0.0 0.0 0.0 7.91351e-14 1.59028e-13 8.75646e-14 75.1312 15.7657 4.35689 -11.3857 -5.02704 20.427 -0.0466324 -6.15121 -0.867866 -1.85326e-09 4.14419e-09 -1.31032e-09 -3.20336e-09 7.1724e-09 -2.26727e-09 -1.85325e-09 4.14419e-09 -1.31032e-09 7.73091 5.47488 0.417314 -1.85326e-09 4.14419e-09 -1.31032e-09 2.90554 0.965183 0.102902 -1.85325e-09 4.14419e-09 -1.31031e-09 10.2786 0.731801 0.0259123 -1.85326e-09 4.14419e-09 -1.31031e-09 2.22167 -0.733487 -0.20892 7.91027e-14 1.59028e-13 8.73162e-14 -85.2001 19.7608 11.7206 12.8337 -6.05077 -23.2357 0.09815 -8.90021 1.2611 -1.08568e-09 -6.02555e-10 2.88863e-09 -1.89345e-09 -1.05042e-09 4.99223e-09 -1.08569e-09 -6.02557e-10 2.88865e-09 -7.73091 5.47488 -0.417314 -1.08568e-09 -6.02555e-10 2.88864e-09 -2.90554 0.965183 -0.102902 -1.08569e-09 -6.02555e-10 2.88864e-09 -10.2786 0.731801 -0.0259123 -1.08567e-09 -6.02555e-10 2.88863e-09 -2.22167 -0.733487 0.20892 -2.03217e-16 0.0 -3.88251e-19 8.54106 2.77381 -1.93697 -0.0339021 17.4526 0.535697 -7.52099 -7.67145 -31.4503 2.03217e-16 0.0 3.88251e-19 3.62977 -52.0319 1.28748 0.268964 33.7361 -0.248443 1.49849 -2.76282 6.35625
-9.22596 80.4291 -137.044 -3.267 6.9803 11.0918 7.26498 7.75656 3.31755 0.824027 -6.8518 1.05459 7.09677 -4.53945 -0.755514 -17.6716 -4.59925 -4.77455 -0.0 0.0 0.0 -0.0 0.0 0.0 2.28831e-14 1.91888e-13 8.14248e-14 74.7137 15.9148 5.32373 -11.6707 -5.22015 20.9744 -0.0575771 -6.77697 -0.95703 -1.35334e-09 3.59782e-09 -1.29924e-09 -2.33994e-09 6.22654e-09 -2.24566e-09 -1.35334e-09 3.59782e-09 -1.29925e-09 7.73091 5.47488 0.417314 -1.35335e-09 3.59782e-09 -1.29924e-09 2.90554 0.965183 0.102902 -1.35334e-09 3.59782e-09 -1.29924e-09 10.2786 0.731801 0.0259123 -1.35334e-09 3.59782e-09 -1.29924e-09 2.22167 -0.733487 -0.20892 2.28699e-14 1.91891e-13 8.11853e-14 -84.9586 19.3981 11.6745 12.6093 -5.8862 -22.7938 0.084294 -8.28555 1.17263 -4.38808e-10 -5.3081e-10 2.8235e-09 -7.74424e-10 -9.25509e-10 4.88102e-09 -4.38819e-10 -5.30811e-10 2.82351e-09 -7.73091 5.47488 -0.417314 -4.38808e-10 -5.3081e-10 2.82351e-09 -2.90554 0.965183 -0.102902 -4.3882e-10 -5.3081e-10 2.8235e-09 -10.2786 0.731801 -0.0259123 -4.38806e-10 -5.30809e-10 2.8235e-09 -2.22167 -0.733487 0.20892 -2.03217e-16 0.0 -3.88251e-19 8.70377 2.78282 -2.02831 -0.0456379 17.8578 0.507704 -7.15694 -7.05791 -31.2458 2.03217e-16 0.0 3.88251e-19 3.3919 -52.3432 0.604643 0.245729 31.837 -0.164822 1.4656 -2.40696 6.54587
-9.27624 80.379 -136.374 -3.4719 6.9878 11.1451 7.27451 8.38725 3.63586 0.733423 -6.74471 1.14906 7.15873 -5.13099 -0.793417 -17.6462 -4.7684 -4.97533 -0.0 0.0 0.0 -0.0 0.0 0.0 -8.77401e-14 2.2035e-13 5.57591e-14 74.2903 15.8902 6.3767 -11.9504 -5.41363 21.5143 -0.0664857 -7.28379 -1.02937 -2.22774e-10 2.0284e-09 -9.79278e-10 -3.86863e-10 3.50998e-09 -1.68863e-09 -2.22769e-10 2.0284e-09 -9.79289e-10 7.73091 5.47488 0.417314 -2.22776e-10 2.0284e-09 -9.7928e-10 2.90554 0.965183 0.102902 -2.22768e-10 2.0284e-09 -9.79281e-10 10.2786 0.731801 0.0259123 -2.22775e-10 2.0284e-09 -9.79279e-10 2.22167 -0.733487 -0.20892 -8.77428e-14 2.20356e-13 5.55324e-14 -84.643 19.0153 11.502 12.3611 -5.70645 -22.3085 0.0700959 -7.57509 1.07079 8.03894e-10 -2.97992e-10 2.20889e-09 1.37802e-09 -5.19894e-10 3.82139e-09 8.03885e-10 -2.97991e-10 2.2089e-09 -7.73091 5.47488 -0.417314 8.03894e-10 -2.97992e-10 2.20889e-09 -2.90554 0.965183 -0.102902 8.03884e-10 -2.97992e-10 2.20889e-09 -10.2786 0.731801 -0.0259123 8.03897e-10 -2.97991e-10 2.20889e-09 -2.22167 -0.733487 0.20892 -2.03217e-16 0.0 -3.88251e-19 8.85763 2.71543 -2.12491 -0.0590417 18.4423 0.478119 -6.78306 -6.42508 -31.0018 2.03217e-16 0.0 3.88251e-19 3.18165 -52.6034 -0.140117 0.22472 30.0289 -0.0831277 1.48293 -2.19475 6.99147
-9.32853 80.3145 -135.679 -3.6749 6.9627 11.174 7.24269 9.01921 3.95362 0.65974 -6.62185 1.24352 7.21769 -5.73708 -0.825975 -17.6018 -4.91307 -5.16061 -0.0 0.0 0.0 -0.0 0.0 0.0 -1.9703e-13 2.30475e-13 3.12861e-14 73.8706 15.8167 7.43693 -12.2277 -5.6094 22.0518 -0.0746378 -7.74783 -1.09569 9.20688e-10 3.17621e-10 -5.24985e-10 1.58825e-09 5.49204e-10 -8.99885e-10 9.20694e-10 3.1762e-10 -5.25003e-10 7.73091 5.47488 0.417314 9.20688e-10 3.17618e-10 -5.2499e-10 2.90554 0.965183 0.102902 9.20692e-10 3.17618e-10 -5.24991e-10 10.2786 0.731801 0.0259123 9.20685e-10 3.17619e-10 -5.2499e-10 2.22167 -0.733487 -0.20892 -1.9703e-13 2.30483e-13 3.10737e-14 -84.3187 18.5795 11.3222 12.1072 -5.52488 -21.8158 0.0572191 -6.83583 0.965268 2.02449e-09 -1.06826e-10 1.43007e-09 3.49311e-09 -1.85991e-10 2.47798e-09 2.02448e-09 -1.06823e-10 1.43007e-09 -7.73091 5.47488 -0.417314 2.02449e-09 -1.06826e-10 1.43007e-09 -2.90554 0.965183 -0.102902 2.02448e-09 -1.06826e-10 1.43007e-09 -10.2786 0.731801 -0.0259123 2.02449e-09 -1.06825e-10 1.43006e-09 -2.22167 -0.733487 0.20892 -2.03217e-16 0.0 -3.88251e-19 8.9808 2.64614 -2.22364 -0.0721114 19.082 0.449519 -6.40637 -5.79681 -30.7146 2.03217e-16 0.0 3.88251e-19 2.99885 -52.8359 -0.823391 0.207815 28.3792 -0.00803097 1.53123 -2.10422 7.56212
-9.37695 80.2377 -134.956 -3.8539 6.9083 11.1795 7.16072 9.57097 4.22209 0.629405 -6.50327 1.32322 7.24719 -6.17672 -0.855064 -17.5194 -5.12193 -5.31415 -0.0 0.0 0.0 -0.0 0.0 0.0 -2.49283e-13 2.08322e-13 2.87244e-14 73.4546 15.8202 8.42817 -12.5052 -5.80929 22.5921 -0.0841124 -8.2452 -1.16693 1.45928e-09 -6.52812e-10 -1.10925e-10 2.51778e-09 -1.12928e-09 -1.83123e-10 1.45929e-09 -6.52814e-10 -1.10947e-10 7.73091 5.47488 0.417314 1.45928e-09 -6.52815e-10 -1.10931e-10 2.90554 0.965183 0.102902 1.45928e-09 -6.52815e-10 -1.10934e-10 10.2786 0.731801 0.0259123 1.45928e-09 -6.52814e-10 -1.10931e-10 2.22167 -0.733487 -0.20892 -2.49285e-13 2.08331e-13 2.85256e-14 -84.0477 18.0586 11.2533 11.8664 -5.35534 -21.3515 0.0463822 -6.13478 0.865529 2.60502e-09 -1.60037e-10 8.72308e-10 4.50007e-09 -2.76215e-10 1.51544e-09 2.60502e-09 -1.60034e-10 8.72308e-10 -7.73091 5.47488 -0.417314 2.60502e-09 -1.60038e-10 8.72308e-10 -2.90554 0.965183 -0.102902 2.60502e-09 -1.60037e-10 8.72308e-10 -10.2786 0.731801 -0.0259123 2.60503e-09 -1.60036e-10 8.72299e-10 -2.22167 -0.733487 0.20892 -2.03217e-16 0.0 -3.88251e-19 9.05197 2.64943 -2.32136 -0.0832229 19.6529 0.42456 -6.03358 -5.19712 -30.3797 2.03217e-16 0.0 3.88251e-19 2.84473 -53.0666 -1.32063 0.195968 26.9552 0.056162 1.59355 -2.11322 8.12709
-9.41641 80.1514 -134.195 -3.9885 6.8272 11.1739 7.01948 10.0425 4.41996 0.657673 -6.38944 1.38288 7.28065 -6.38654 -0.863739 -17.4482 -5.42829 -5.41665 -0.0 0.0 0.0 -0.0 0.0 0.0 -2.10165e-13 1.27604e-13 6.28171e-14 73.0218 15.9424 9.35937 -12.7875 -6.01686 23.1439 -0.0958534 -8.80456 -1.24729 1.01009e-09 -4.52224e-10 2.74689e-10 1.73966e-09 -7.79457e-10 4.80198e-10 1.01009e-09 -4.52225e-10 2.74667e-10 7.73091 5.47488 0.417314 1.01009e-09 -4.52226e-10 2.74684e-10 2.90554 0.965183 0.102902 1.01009e-09 -4.52226e-10 2.74682e-10 10.2786 0.731801 0.0259123 1.01008e-09 -4.52224e-10 2.74686e-10 2.22167 -0.733487 -0.20892 -2.10179e-13 1.27611e-13 6.26343e-14 -83.8503 17.4368 11.3283 11.6501 -5.20549 -20.9359 0.0375604 -5.50184 0.775681 2.15708e-09 -6.05026e-10 6.43058e-10 3.72673e-09 -1.04635e-09 1.11899e-09 2.15708e-09 -6.05024e-10 6.43056e-10 -7.73091 5.47488 -0.417314 2.15708e-09 -6.05026e-10 6.43057e-10 -2.90554 0.965183 -0.102902 2.15708e-09 -6.05025e-10 6.43055e-10 -10.2786 0.731801 -0.0259123 2.15708e-09 -6.05024e-10 6.43046e-10 -2.22167 -0.733487 0.20892 -2.03217e-16 0.0 -3.88251e-19 9.05885 2.71502 -2.413 -0.0929475 20.1828 0.403575 -5.66823 -4.63313 -29.987 2.03217e-16 0.0 3.88251e-19 2.73924 -53.297 -1.55422 0.186408 25.744 0.11183 1.67792 -2.23208 8.71355
